<svg preserveAspectRatio="none" id="visual" viewBox="0 0 900 675" width="900" height="675" xmlns="http://www.w3.org/2000/svg" xmlns:xlink="http://www.w3.org/1999/xlink" version="1.1"><rect x="0" y="0" width="900" height="675" fill="#f3f4f6"></rect><defs><linearGradient id="grad1_0" x1="25%" y1="0%" x2="100%" y2="100%"><stop offset="23.333333333333336%" stop-color="#3b82f6" stop-opacity="1"></stop><stop offset="76.66666666666666%" stop-color="#3b82f6" stop-opacity="1"></stop></linearGradient></defs><defs><linearGradient id="grad1_1" x1="25%" y1="0%" x2="100%" y2="100%"><stop offset="23.333333333333336%" stop-color="#3b82f6" stop-opacity="1"></stop><stop offset="76.66666666666666%" stop-color="#9ebbf9" stop-opacity="1"></stop></linearGradient></defs><defs><linearGradient id="grad1_2" x1="25%" y1="0%" x2="100%" y2="100%"><stop offset="23.333333333333336%" stop-color="#f3f4f6" stop-opacity="1"></stop><stop offset="76.66666666666666%" stop-color="#9ebbf9" stop-opacity="1"></stop></linearGradient></defs><defs><linearGradient id="grad2_0" x1="0%" y1="0%" x2="75%" y2="100%"><stop offset="23.333333333333336%" stop-color="#3b82f6" stop-opacity="1"></stop><stop offset="76.66666666666666%" stop-color="#3b82f6" stop-opacity="1"></stop></linearGradient></defs><defs><linearGradient id="grad2_1" x1="0%" y1="0%" x2="75%" y2="100%"><stop offset="23.333333333333336%" stop-color="#9ebbf9" stop-opacity="1"></stop><stop offset="76.66666666666666%" stop-color="#3b82f6" stop-opacity="1"></stop></linearGradient></defs><defs><linearGradient id="grad2_2" x1="0%" y1="0%" x2="75%" y2="100%"><stop offset="23.333333333333336%" stop-color="#9ebbf9" stop-opacity="1"></stop><stop offset="76.66666666666666%" stop-color="#f3f4f6" stop-opacity="1"></stop></linearGradient></defs><g transform="translate(900, 0)"><path d="M0 365.6C-39.1 357.9 -78.2 350.1 -107.2 330C-136.3 310 -155.3 277.6 -188.7 259.7C-222 241.8 -269.6 238.4 -295.8 214.9C-322 191.4 -326.7 147.9 -334.8 108.8C-342.8 69.6 -354.2 34.8 -365.6 0L0 0Z" fill="#c8d8f8"></path><path d="M0 243.8C-26.1 238.6 -52.1 233.4 -71.5 220C-90.9 206.6 -103.6 185.1 -125.8 173.1C-148 161.2 -179.7 158.9 -197.2 143.3C-214.6 127.6 -217.8 98.6 -223.2 72.5C-228.6 46.4 -236.2 23.2 -243.7 0L0 0Z" fill="#729ff8"></path><path d="M0 121.9C-13 119.3 -26.1 116.7 -35.7 110C-45.4 103.3 -51.8 92.5 -62.9 86.6C-74 80.6 -89.9 79.5 -98.6 71.6C-107.3 63.8 -108.9 49.3 -111.6 36.3C-114.3 23.2 -118.1 11.6 -121.9 0L0 0Z" fill="#3b82f6"></path></g><g transform="translate(0, 675)"><path d="M0 -365.6C40.8 -365.7 81.6 -365.8 113 -347.7C144.4 -329.7 166.5 -293.5 195.1 -268.6C223.8 -243.7 259.1 -230 281.5 -204.5C303.9 -179.1 313.4 -141.7 325.3 -105.7C337.1 -69.6 351.4 -34.8 365.6 0L0 0Z" fill="#c8d8f8"></path><path d="M0 -243.7C27.2 -243.8 54.4 -243.9 75.3 -231.8C96.3 -219.8 111 -195.7 130.1 -179.1C149.2 -162.5 172.8 -153.4 187.7 -136.4C202.6 -119.4 208.9 -94.5 216.8 -70.5C224.7 -46.4 234.2 -23.2 243.8 0L0 0Z" fill="#729ff8"></path><path d="M0 -121.9C13.6 -121.9 27.2 -121.9 37.7 -115.9C48.1 -109.9 55.5 -97.8 65 -89.5C74.6 -81.2 86.4 -76.7 93.8 -68.2C101.3 -59.7 104.5 -47.2 108.4 -35.2C112.4 -23.2 117.1 -11.6 121.9 0L0 0Z" fill="#3b82f6"></path></g></svg>