<svg preserveAspectRatio="none" id="visual" viewBox="0 0 900 900" width="900" height="900" xmlns="http://www.w3.org/2000/svg" xmlns:xlink="http://www.w3.org/1999/xlink" version="1.1"><rect x="0" y="0" width="900" height="900" fill="#f3f4f6"></rect><defs><linearGradient id="grad1_0" x1="0%" y1="0%" x2="100%" y2="100%"><stop offset="30%" stop-color="#3b82f6" stop-opacity="1"></stop><stop offset="70%" stop-color="#3b82f6" stop-opacity="1"></stop></linearGradient></defs><defs><linearGradient id="grad1_1" x1="0%" y1="0%" x2="100%" y2="100%"><stop offset="30%" stop-color="#3b82f6" stop-opacity="1"></stop><stop offset="70%" stop-color="#9ebbf9" stop-opacity="1"></stop></linearGradient></defs><defs><linearGradient id="grad1_2" x1="0%" y1="0%" x2="100%" y2="100%"><stop offset="30%" stop-color="#f3f4f6" stop-opacity="1"></stop><stop offset="70%" stop-color="#9ebbf9" stop-opacity="1"></stop></linearGradient></defs><defs><linearGradient id="grad2_0" x1="0%" y1="0%" x2="100%" y2="100%"><stop offset="30%" stop-color="#3b82f6" stop-opacity="1"></stop><stop offset="70%" stop-color="#3b82f6" stop-opacity="1"></stop></linearGradient></defs><defs><linearGradient id="grad2_1" x1="0%" y1="0%" x2="100%" y2="100%"><stop offset="30%" stop-color="#9ebbf9" stop-opacity="1"></stop><stop offset="70%" stop-color="#3b82f6" stop-opacity="1"></stop></linearGradient></defs><defs><linearGradient id="grad2_2" x1="0%" y1="0%" x2="100%" y2="100%"><stop offset="30%" stop-color="#9ebbf9" stop-opacity="1"></stop><stop offset="70%" stop-color="#f3f4f6" stop-opacity="1"></stop></linearGradient></defs><g transform="translate(900, 0)"><path d="M0 413.7C-35.2 383.3 -70.3 352.9 -110.9 341.4C-151.6 329.9 -197.6 337.2 -234.5 322.8C-271.4 308.4 -299.2 272.2 -326 236.9C-352.9 201.6 -378.9 167.2 -393.4 127.8C-407.9 88.5 -410.8 44.2 -413.7 0L0 0Z" fill="#c8d8f8"></path><path d="M0 275.8C-23.4 255.5 -46.9 235.3 -74 227.6C-101 219.9 -131.8 224.8 -156.4 215.2C-181 205.6 -199.4 181.5 -217.4 157.9C-235.3 134.4 -252.6 111.4 -262.3 85.2C-271.9 59 -273.8 29.5 -275.8 0L0 0Z" fill="#729ff8"></path><path d="M0 137.9C-11.7 127.8 -23.4 117.6 -37 113.8C-50.5 110 -65.9 112.4 -78.2 107.6C-90.5 102.8 -99.7 90.7 -108.7 79C-117.6 67.2 -126.3 55.7 -131.1 42.6C-136 29.5 -136.9 14.7 -137.9 0L0 0Z" fill="#3b82f6"></path></g><g transform="translate(0, 900)"><path d="M0 -413.7C39.8 -401.8 79.6 -390 123.6 -380.4C167.6 -370.9 215.8 -363.6 243.1 -334.7C270.5 -305.7 277 -255 301 -218.7C324.9 -182.3 366.3 -160.1 388 -126.1C409.7 -92 411.7 -46 413.7 0L0 0Z" fill="#c8d8f8"></path><path d="M0 -275.8C26.5 -267.9 53.1 -260 82.4 -253.6C111.7 -247.2 143.9 -242.4 162.1 -223.1C180.3 -203.8 184.7 -170 200.6 -145.8C216.6 -121.5 244.2 -106.8 258.7 -84.1C273.1 -61.3 274.5 -30.7 275.8 0L0 0Z" fill="#729ff8"></path><path d="M0 -137.9C13.3 -133.9 26.5 -130 41.2 -126.8C55.9 -123.6 71.9 -121.2 81 -111.6C90.2 -101.9 92.3 -85 100.3 -72.9C108.3 -60.8 122.1 -53.4 129.3 -42C136.6 -30.7 137.2 -15.3 137.9 0L0 0Z" fill="#3b82f6"></path></g></svg>