<svg preserveAspectRatio="none" id="visual" viewBox="0 0 675 900" width="675" height="900" xmlns="http://www.w3.org/2000/svg" xmlns:xlink="http://www.w3.org/1999/xlink" version="1.1"><rect x="0" y="0" width="675" height="900" fill="#f3f4f6"></rect><defs><linearGradient id="grad1_0" x1="0%" y1="0%" x2="100%" y2="100%"><stop offset="30%" stop-color="#3b82f6" stop-opacity="1"></stop><stop offset="70%" stop-color="#3b82f6" stop-opacity="1"></stop></linearGradient></defs><defs><linearGradient id="grad1_1" x1="0%" y1="0%" x2="100%" y2="100%"><stop offset="30%" stop-color="#3b82f6" stop-opacity="1"></stop><stop offset="70%" stop-color="#9ebbf9" stop-opacity="1"></stop></linearGradient></defs><defs><linearGradient id="grad1_2" x1="0%" y1="0%" x2="100%" y2="100%"><stop offset="30%" stop-color="#f3f4f6" stop-opacity="1"></stop><stop offset="70%" stop-color="#9ebbf9" stop-opacity="1"></stop></linearGradient></defs><defs><linearGradient id="grad2_0" x1="0%" y1="0%" x2="100%" y2="100%"><stop offset="30%" stop-color="#3b82f6" stop-opacity="1"></stop><stop offset="70%" stop-color="#3b82f6" stop-opacity="1"></stop></linearGradient></defs><defs><linearGradient id="grad2_1" x1="0%" y1="0%" x2="100%" y2="100%"><stop offset="30%" stop-color="#9ebbf9" stop-opacity="1"></stop><stop offset="70%" stop-color="#3b82f6" stop-opacity="1"></stop></linearGradient></defs><defs><linearGradient id="grad2_2" x1="0%" y1="0%" x2="100%" y2="100%"><stop offset="30%" stop-color="#9ebbf9" stop-opacity="1"></stop><stop offset="70%" stop-color="#f3f4f6" stop-opacity="1"></stop></linearGradient></defs><g transform="translate(675, 0)"><path d="M0 365.6C-29.8 337.3 -59.5 309 -98.3 302.4C-137 295.9 -184.7 311 -214.9 295.8C-245.1 280.6 -257.7 234.9 -274.3 199.3C-290.8 163.6 -311.3 137.9 -327.2 106.3C-343 74.8 -354.3 37.4 -365.6 0L0 0Z" fill="#c8d8f8"></path><path d="M0 243.8C-19.8 224.9 -39.7 206 -65.5 201.6C-91.3 197.2 -123.2 207.4 -143.3 197.2C-163.4 187 -171.8 156.6 -182.8 132.8C-193.9 109.1 -207.5 91.9 -218.1 70.9C-228.7 49.8 -236.2 24.9 -243.7 0L0 0Z" fill="#729ff8"></path><path d="M0 121.9C-9.9 112.4 -19.8 103 -32.8 100.8C-45.7 98.6 -61.6 103.7 -71.6 98.6C-81.7 93.5 -85.9 78.3 -91.4 66.4C-96.9 54.5 -103.8 46 -109.1 35.4C-114.3 24.9 -118.1 12.5 -121.9 0L0 0Z" fill="#3b82f6"></path></g><g transform="translate(0, 900)"><path d="M0 -365.6C38.7 -358.7 77.3 -351.7 109.1 -335.7C140.8 -319.7 165.7 -294.6 200.4 -275.9C235.2 -257.1 279.7 -244.6 295.8 -214.9C311.8 -185.2 299.4 -138.2 306.2 -99.5C313.1 -60.8 339.4 -30.4 365.6 0L0 0Z" fill="#c8d8f8"></path><path d="M0 -243.7C25.8 -239.1 51.5 -234.5 72.7 -223.8C93.9 -213.1 110.5 -196.4 133.6 -183.9C156.8 -171.4 186.5 -163.1 197.2 -143.3C207.9 -123.5 199.6 -92.1 204.2 -66.3C208.7 -40.5 226.2 -20.3 243.8 0L0 0Z" fill="#729ff8"></path><path d="M0 -121.9C12.9 -119.6 25.8 -117.2 36.4 -111.9C46.9 -106.6 55.2 -98.2 66.8 -92C78.4 -85.7 93.2 -81.5 98.6 -71.6C103.9 -61.7 99.8 -46.1 102.1 -33.2C104.4 -20.3 113.1 -10.1 121.9 0L0 0Z" fill="#3b82f6"></path></g></svg>