<svg preserveAspectRatio="none" id="visual" viewBox="0 0 960 540" width="960" height="540" xmlns="http://www.w3.org/2000/svg" xmlns:xlink="http://www.w3.org/1999/xlink" version="1.1"><rect x="0" y="0" width="960" height="540" fill="#f3f4f6"></rect><defs><linearGradient id="grad1_0" x1="43.8%" y1="0%" x2="100%" y2="100%"><stop offset="14.444444444444446%" stop-color="#3b82f6" stop-opacity="1"></stop><stop offset="85.55555555555554%" stop-color="#3b82f6" stop-opacity="1"></stop></linearGradient></defs><defs><linearGradient id="grad1_1" x1="43.8%" y1="0%" x2="100%" y2="100%"><stop offset="14.444444444444446%" stop-color="#3b82f6" stop-opacity="1"></stop><stop offset="85.55555555555554%" stop-color="#9ebbf9" stop-opacity="1"></stop></linearGradient></defs><defs><linearGradient id="grad1_2" x1="43.8%" y1="0%" x2="100%" y2="100%"><stop offset="14.444444444444446%" stop-color="#f3f4f6" stop-opacity="1"></stop><stop offset="85.55555555555554%" stop-color="#9ebbf9" stop-opacity="1"></stop></linearGradient></defs><defs><linearGradient id="grad2_0" x1="0%" y1="0%" x2="56.3%" y2="100%"><stop offset="14.444444444444446%" stop-color="#3b82f6" stop-opacity="1"></stop><stop offset="85.55555555555554%" stop-color="#3b82f6" stop-opacity="1"></stop></linearGradient></defs><defs><linearGradient id="grad2_1" x1="0%" y1="0%" x2="56.3%" y2="100%"><stop offset="14.444444444444446%" stop-color="#9ebbf9" stop-opacity="1"></stop><stop offset="85.55555555555554%" stop-color="#3b82f6" stop-opacity="1"></stop></linearGradient></defs><defs><linearGradient id="grad2_2" x1="0%" y1="0%" x2="56.3%" y2="100%"><stop offset="14.444444444444446%" stop-color="#9ebbf9" stop-opacity="1"></stop><stop offset="85.55555555555554%" stop-color="#f3f4f6" stop-opacity="1"></stop></linearGradient></defs><g transform="translate(960, 0)"><path d="M0 351C-37.2 348.3 -74.3 345.6 -108.5 333.8C-142.6 322.1 -173.7 301.3 -201 276.7C-228.3 252.1 -251.9 223.7 -265.4 192.8C-278.8 161.9 -282.2 128.4 -294.8 95.8C-307.4 63.2 -329.2 31.6 -351 0L0 0Z" fill="#c8d8f8"></path><path d="M0 234C-24.8 232.2 -49.6 230.4 -72.3 222.5C-95.1 214.7 -115.8 200.8 -134 184.5C-152.2 168.1 -167.9 149.2 -176.9 128.5C-185.9 107.9 -188.2 85.6 -196.6 63.9C-204.9 42.2 -219.5 21.1 -234 0L0 0Z" fill="#729ff8"></path><path d="M0 117C-12.4 116.1 -24.8 115.2 -36.2 111.3C-47.5 107.4 -57.9 100.4 -67 92.2C-76.1 84 -84 74.6 -88.5 64.3C-92.9 54 -94.1 42.8 -98.3 31.9C-102.5 21.1 -109.7 10.5 -117 0L0 0Z" fill="#3b82f6"></path></g><g transform="translate(0, 540)"><path d="M0 -351C32.3 -332.2 64.6 -313.4 98.3 -302.4C131.9 -291.4 167 -288.2 199.3 -274.3C231.6 -260.3 261.1 -235.6 284 -206.3C306.8 -177.1 322.8 -143.3 332.9 -108.2C342.9 -73 347 -36.5 351 0L0 0Z" fill="#c8d8f8"></path><path d="M0 -234C21.5 -221.5 43.1 -209 65.5 -201.6C88 -194.3 111.3 -192.2 132.8 -182.8C154.4 -173.5 174.1 -157 189.3 -137.5C204.5 -118 215.2 -95.5 221.9 -72.1C228.6 -48.7 231.3 -24.3 234 0L0 0Z" fill="#729ff8"></path><path d="M0 -117C10.8 -110.7 21.5 -104.5 32.8 -100.8C44 -97.1 55.7 -96.1 66.4 -91.4C77.2 -86.8 87 -78.5 94.7 -68.8C102.3 -59 107.6 -47.8 111 -36.1C114.3 -24.3 115.7 -12.2 117 0L0 0Z" fill="#3b82f6"></path></g></svg>